<svg xmlns="http://www.w3.org/2000/svg" viewBox="0 0 297.48917 110.73219">
  <defs>
    <style>
      .\39 2df5cdb-c37b-4a02-a5d3-a1b3695a943a {
        fill: #fff;
      }
    </style>
  </defs>
  <title>uoit-logo</title>
  <g id="0e729f45-7603-49c2-a1b1-d8e70aa5be8f" data-name="text">
    <path class="92df5cdb-c37b-4a02-a5d3-a1b3695a943a" d="M87.72388,2.22475V22.60109c0,4.37928,0,8.56253,5.46253,8.56253,5.36236,0,5.36236-3.93714,5.36236-8.6608V2.22475h4.875V22.25653c0,4.77255-.10086,8.90709-3.40016,11.36771-1.27738.93541-3.29414,2.01693-7.13128,2.01693-10.33748,0-10.48446-7.23386-10.48446-13.04008V2.22475Z" transform="translate(-1.60447 -1.6339)"/>
    <path class="92df5cdb-c37b-4a02-a5d3-a1b3695a943a" d="M115.28126,2.22475,126.112,25.89627V2.22475h4.52452V35.05291h-5.06737L113.41233,8.76777V35.05291h-4.53125V2.22475Z" transform="translate(-1.60447 -1.6339)"/>
    <path class="92df5cdb-c37b-4a02-a5d3-a1b3695a943a" d="M142.20164,2.22475V35.05291h-5.41692V2.22475Z" transform="translate(-1.60447 -1.6339)"/>
    <path class="92df5cdb-c37b-4a02-a5d3-a1b3695a943a" d="M151.99371,2.22475,158.246,28.40732,164.4951,2.22475h4.77323L160.658,35.14964l-5.90777-.09672-8.4677-32.82816Z" transform="translate(-1.60447 -1.6339)"/>
    <path class="92df5cdb-c37b-4a02-a5d3-a1b3695a943a" d="M191.7079,2.22475v4.3304H178.37128v9.44906h10.48446v4.33212H178.37128V30.62166h13.58205v4.43126H172.96262V2.22475Z" transform="translate(-1.60447 -1.6339)"/>
    <path class="92df5cdb-c37b-4a02-a5d3-a1b3695a943a" d="M206.03122,2.22475c3.09914,0,5.31451.44369,7.03714,1.67237,1.77323,1.27807,3.44732,3.79084,3.44732,7.67755,0,5.95493-3.64386,7.87513-5.06924,8.61468l6.24579,14.86356h-5.85409l-5.16822-13.73247h-5.11967V35.05291H196.1383V2.22475Zm-4.481,4.1817V17.137h4.18513c3.88757,0,5.41365-2.36218,5.41365-5.61278,0-5.11779-4.23213-5.11779-5.36665-5.11779Z" transform="translate(-1.60447 -1.6339)"/>
    <path class="92df5cdb-c37b-4a02-a5d3-a1b3695a943a" d="M236.5886,11.17968c-1.02852-3.05061-2.41174-5.06823-5.80691-5.06823a4.13816,4.13816,0,0,0-4.47583,4.133c0,2.95457,2.65562,3.93954,6.54319,5.46321,3.79,1.42935,9.2038,3.49671,9.2038,9.991,0,4.72539-3.34474,9.94249-11.02228,9.94249-9.20382,0-10.82576-6.93973-11.372-9.15251l4.82383-1.37824c.34456,1.47909,1.32781,6.0532,6.6943,6.0532,4.5297,0,5.31623-3.2,5.31623-4.72539,0-3.09932-2.66061-4.28-5.61035-5.36408-3.64388-1.37652-5.17-1.96633-6.94146-3.49413a8.84845,8.84845,0,0,1-2.95473-6.69189c0-4.48168,3.15145-9.25423,10.09462-9.25423,7.723,0,9.44561,5.65907,10.13473,7.92384Z" transform="translate(-1.60447 -1.6339)"/>
    <path class="92df5cdb-c37b-4a02-a5d3-a1b3695a943a" d="M251.45319,2.22475V35.05291h-5.41365V2.22475Z" transform="translate(-1.60447 -1.6339)"/>
    <path class="92df5cdb-c37b-4a02-a5d3-a1b3695a943a" d="M274.72972,2.22475V6.84928h-7.33316V35.05291h-5.41365V6.84928h-7.23214V2.22475Z" transform="translate(-1.60447 -1.6339)"/>
    <path class="92df5cdb-c37b-4a02-a5d3-a1b3695a943a" d="M281.76858,2.22475l6.00363,13.68032L293.875,2.22475h5.21865L289.98742,21.1726V35.05291h-5.41193V21.1726L275.8591,2.22475Z" transform="translate(-1.60447 -1.6339)"/>
    <path class="92df5cdb-c37b-4a02-a5d3-a1b3695a943a" d="M105.14652,63.1624c0,6.74232-1.52608,16.98049-11.7164,16.98049-9.84163,0-11.85856-9.35164-11.85856-16.98049,0-7.52885,1.9665-17.02747,11.80814-17.02747C103.175,46.13493,105.14652,55.48485,105.14652,63.1624ZM88.60629,53.95877c-1.227,2.805-1.32438,7.18429-1.32438,9.20363,0,1.96822.14784,6.34905,1.32438,9.15424.94124,2.11847,2.21863,3.34543,4.82382,3.34543,2.7563,0,3.93782-1.67065,4.67737-3.34543,1.227-2.90346,1.32782-7.381,1.32782-9.15424,0-2.26563-.147-6.44647-1.32782-9.20363-.73955-1.62625-1.87064-3.34887-4.7278-3.34887C90.58121,50.6099,89.39627,52.18555,88.60629,53.95877Z" transform="translate(-1.60447 -1.6339)"/>
    <path class="92df5cdb-c37b-4a02-a5d3-a1b3695a943a" d="M127.73393,46.72319v4.33212H114.93841v9.84146h10.239v4.333h-10.239V79.55308h-5.41365V46.72319Z" transform="translate(-1.60447 -1.6339)"/>
    <path class="92df5cdb-c37b-4a02-a5d3-a1b3695a943a" d="M162.33034,63.1624c0,6.74232-1.52454,16.98049-11.71659,16.98049-9.8406,0-11.85753-9.35164-11.85753-16.98049,0-7.52885,1.9665-17.02747,11.81228-17.02747C160.36382,46.13493,162.33034,55.48485,162.33034,63.1624Zm-16.54025-9.20363c-1.227,2.805-1.32781,7.18429-1.32781,9.20363,0,1.96822.148,6.34905,1.32781,9.15424.93781,2.11847,2.21864,3.34543,4.82366,3.34543,2.7582,0,3.938-1.67065,4.67754-3.34543,1.23195-2.90346,1.32953-7.381,1.32953-9.15424,0-2.26563-.148-6.44647-1.32953-9.20363-.73955-1.62625-1.86892-3.34887-4.72279-3.34887C147.76158,50.6099,146.58006,52.18555,145.79009,53.95877Z" transform="translate(-1.60447 -1.6339)"/>
    <path class="92df5cdb-c37b-4a02-a5d3-a1b3695a943a" d="M173.01307,46.72319l10.82057,23.67307V46.72319h4.52953V79.55308H183.2958L171.139,53.26793V79.55308h-4.53125V46.72319Z" transform="translate(-1.60447 -1.6339)"/>
    <path class="92df5cdb-c37b-4a02-a5d3-a1b3695a943a" d="M212.18269,46.72319v4.62625h-7.33315V79.55308h-5.41366V51.34945H192.2003V46.72319Z" transform="translate(-1.60447 -1.6339)"/>
    <path class="92df5cdb-c37b-4a02-a5d3-a1b3695a943a" d="M226.311,46.72319l8.76166,32.82989h-5.5145l-2.06736-8.21969h-9.54664l-2.01676,8.21969H210.707l9.49776-32.82989Zm.10086,20.32592L222.71758,51.988l-3.73971,15.06114Z" transform="translate(-1.60447 -1.6339)"/>
    <path class="92df5cdb-c37b-4a02-a5d3-a1b3695a943a" d="M248.11189,46.72319c3.10086,0,5.31606.44025,7.03886,1.67392,1.77323,1.27738,3.4456,3.78843,3.4456,7.67772,0,5.95648-3.63887,7.875-5.06754,8.61451l6.24389,14.86374h-5.8539l-5.16822-13.73333h-5.118V79.55308H238.219V46.72319Zm-4.47927,4.185V61.6389h4.18514c3.8874,0,5.41193-2.36407,5.41193-5.61209,0-5.11865-4.23213-5.11865-5.36494-5.11865Z" transform="translate(-1.60447 -1.6339)"/>
    <path class="92df5cdb-c37b-4a02-a5d3-a1b3695a943a" d="M269.6152,46.72319V79.55308h-5.41365V46.72319Z" transform="translate(-1.60447 -1.6339)"/>
    <path class="92df5cdb-c37b-4a02-a5d3-a1b3695a943a" d="M297.96753,63.1624c0,6.74232-1.52608,16.98049-11.7164,16.98049-9.84077,0-11.86269-9.35164-11.86269-16.98049,0-7.52885,1.97149-17.02747,11.81227-17.02747C295.99606,46.13493,297.96753,55.48485,297.96753,63.1624Zm-16.54006-9.20363c-1.23195,2.805-1.32781,7.18429-1.32781,9.20363,0,1.96822.14629,6.34905,1.32781,9.15424.93609,2.11847,2.21348,3.34543,4.82366,3.34543,2.7582,0,3.938-1.67065,4.67754-3.34543,1.23023-2.90346,1.32781-7.381,1.32781-9.15424,0-2.26563-.148-6.44647-1.32781-9.20363-.73953-1.62625-1.87408-3.34887-4.728-3.34887C283.394,50.6099,282.21744,52.18555,281.42747,53.95877Z" transform="translate(-1.60447 -1.6339)"/>
    <path class="92df5cdb-c37b-4a02-a5d3-a1b3695a943a" d="M4.09625,91.86945v20.07636H1.65834V91.86945Z" transform="translate(-1.60447 -1.6339)"/>
    <path class="92df5cdb-c37b-4a02-a5d3-a1b3695a943a" d="M11.257,91.86945l7.67514,15.8611V91.86945h2.10522v20.07636H18.62953l-8.36409-17.098v17.098H8.15781V91.86945Z" transform="translate(-1.60447 -1.6339)"/>
    <path class="92df5cdb-c37b-4a02-a5d3-a1b3695a943a" d="M33.77053,97.07467c-.542-1.62693-1.26482-3.57829-4.03386-3.57829a3.0603,3.0603,0,0,0-3.3413,3.12616c0,2.10935,1.65568,2.77162,4.4254,3.82372,2.34462.90425,5.71965,2.1985,5.71965,6.04907,0,2.5009-1.68579,5.87077-6.41376,5.87077a7.46573,7.46573,0,0,1-4.93708-1.68407,6.85112,6.85112,0,0,1-1.98594-4.00357l2.22707-.632c.30083,1.32282.99408,4.27412,4.75481,4.27412,3.01361,0,3.82458-2.10591,3.82458-3.432,0-2.37836-2.04636-3.2506-3.94385-3.97328-2.31777-.90253-3.2506-1.26224-4.30269-2.19678A5.48312,5.48312,0,0,1,24.01719,96.747c0-2.44049,1.775-5.29937,5.92964-5.29937,4.51282,0,5.5675,3.55144,5.99192,4.9968Z" transform="translate(-1.60447 -1.6339)"/>
    <path class="92df5cdb-c37b-4a02-a5d3-a1b3695a943a" d="M49.17193,91.86945v2.04722H44.36v18.02914h-2.437V93.91667h-4.7858V91.86945Z" transform="translate(-1.60447 -1.6339)"/>
    <path class="92df5cdb-c37b-4a02-a5d3-a1b3695a943a" d="M53.50406,91.86945v20.07636H51.07114V91.86945Z" transform="translate(-1.60447 -1.6339)"/>
    <path class="92df5cdb-c37b-4a02-a5d3-a1b3695a943a" d="M67.40967,91.86945v2.04722H62.59358v18.02914h-2.437V93.91667H55.3697V91.86945Z" transform="translate(-1.60447 -1.6339)"/>
    <path class="92df5cdb-c37b-4a02-a5d3-a1b3695a943a" d="M71.77208,91.86945v13.27277c0,2.65218,0,5.17838,3.67243,5.17838,3.795,0,3.795-2.679,3.795-5.29765V91.86945h2.28593v13.03423c0,3.00844,0,7.46242-6.1692,7.46242-5.87008,0-6.02119-4.212-6.02119-7.22388V91.86945Z" transform="translate(-1.60447 -1.6339)"/>
    <path class="92df5cdb-c37b-4a02-a5d3-a1b3695a943a" d="M95.39317,91.86945v2.04722h-4.812v18.02914h-2.437V93.91667H83.35734V91.86945Z" transform="translate(-1.60447 -1.6339)"/>
    <path class="92df5cdb-c37b-4a02-a5d3-a1b3695a943a" d="M108.155,91.86945v2.01521H99.66643V100.537h6.68174v2.01693H99.66643v7.37516h8.72724v2.01676H97.22853V91.86945Z" transform="translate(-1.60447 -1.6339)"/>
    <path class="92df5cdb-c37b-4a02-a5d3-a1b3695a943a" d="M130.30539,101.92364c0,4.39184-1.08393,10.44246-7.07242,10.44246-6.23219,0-7.19531-6.44233-7.19531-10.44246,0-4.21526,1.05554-10.476,7.19531-10.476C129.19116,91.44761,130.30539,97.43782,130.30539,101.92364ZM119.71182,95.599a14.80113,14.80113,0,0,0-1.143,6.32461,14.31253,14.31253,0,0,0,1.143,6.25732,3.85888,3.85888,0,0,0,6.92131.03373,14.40082,14.40082,0,0,0,1.14624-6.29105,14.23039,14.23039,0,0,0-1.14624-6.29105,3.52944,3.52944,0,0,0-3.459-2.16976A3.57936,3.57936,0,0,0,119.71182,95.599Z" transform="translate(-1.60447 -1.6339)"/>
    <path class="92df5cdb-c37b-4a02-a5d3-a1b3695a943a" d="M143.51276,91.86945v2.01521h-8.09285V100.537h6.64732v2.01693h-6.64732v9.39192h-2.437V91.86945Z" transform="translate(-1.60447 -1.6339)"/>
    <path class="92df5cdb-c37b-4a02-a5d3-a1b3695a943a" d="M161.62933,91.86945v2.04722h-4.812v18.02914h-2.442V93.91667h-4.78683V91.86945Z" transform="translate(-1.60447 -1.6339)"/>
    <path class="92df5cdb-c37b-4a02-a5d3-a1b3695a943a" d="M174.48371,91.86945v2.01521h-8.48783V100.537h6.681v2.01693h-6.681v7.37516H174.719v2.01676H163.55384V91.86945Z" transform="translate(-1.60447 -1.6339)"/>
    <path class="92df5cdb-c37b-4a02-a5d3-a1b3695a943a" d="M189.254,106.196c-.54111,3.01034-1.62521,6.17006-6.20189,6.17006-6.07249,0-6.98019-6.412-6.98019-10.3836,0-2.73961.42029-10.53488,7.07259-10.53488,4.933,0,5.87077,4.27412,6.23219,6.10948l-2.31605.5714c-.395-1.95463-.93609-4.63211-3.85728-4.63211-4.4254,0-4.5464,6.43734-4.5464,8.42725,0,2.79847.45386,8.397,4.5464,8.397,2.26063,0,3.13116-1.20682,3.85728-4.66567Z" transform="translate(-1.60447 -1.6339)"/>
    <path class="92df5cdb-c37b-4a02-a5d3-a1b3695a943a" d="M192.14161,91.86945h2.442v8.518h7.31113v-8.518H204.332v20.07636h-2.43722v-9.5432h-7.31113v9.5432h-2.442Z" transform="translate(-1.60447 -1.6339)"/>
    <path class="92df5cdb-c37b-4a02-a5d3-a1b3695a943a" d="M211.79614,91.86945l7.66912,15.8611V91.86945h2.10935v20.07636h-2.40348l-8.36665-17.098v17.098h-2.11109V91.86945Z" transform="translate(-1.60447 -1.6339)"/>
    <path class="92df5cdb-c37b-4a02-a5d3-a1b3695a943a" d="M238.54667,101.92364c0,4.39184-1.08393,10.44246-7.07242,10.44246-6.23219,0-7.19358-6.44233-7.19358-10.44246,0-4.21526,1.05554-10.476,7.19358-10.476C237.43416,91.44761,238.54667,97.43782,238.54667,101.92364ZM227.95309,95.599a14.80113,14.80113,0,0,0-1.143,6.32461,14.33487,14.33487,0,0,0,1.143,6.25732,3.85888,3.85888,0,0,0,6.92131.03373,14.37747,14.37747,0,0,0,1.1428-6.29105,14.208,14.208,0,0,0-1.1428-6.29105,3.53337,3.53337,0,0,0-3.4573-2.16976A3.58015,3.58015,0,0,0,227.95309,95.599Z" transform="translate(-1.60447 -1.6339)"/>
    <path class="92df5cdb-c37b-4a02-a5d3-a1b3695a943a" d="M244.56544,91.86945v18.0596h7.61372v2.01676H242.12668V91.86945Z" transform="translate(-1.60447 -1.6339)"/>
    <path class="92df5cdb-c37b-4a02-a5d3-a1b3695a943a" d="M267.16473,101.92364c0,4.39184-1.08411,10.44246-7.07259,10.44246-6.2272,0-7.19013-6.44233-7.19013-10.44246,0-4.21526,1.05535-10.476,7.19013-10.476C266.05033,91.44761,267.16473,97.43782,267.16473,101.92364ZM256.57443,95.599a14.75013,14.75013,0,0,0-1.14641,6.32461,14.33381,14.33381,0,0,0,1.14641,6.25732,3.85613,3.85613,0,0,0,6.91787.03373,14.375,14.375,0,0,0,1.1428-6.29105,14.27851,14.27851,0,0,0-1.1428-6.29105,3.5262,3.5262,0,0,0-3.459-2.16976A3.57455,3.57455,0,0,0,256.57443,95.599Z" transform="translate(-1.60447 -1.6339)"/>
    <path class="92df5cdb-c37b-4a02-a5d3-a1b3695a943a" d="M283.23427,102.01279v10.202h-1.68409l-.33286-2.73961a4.88067,4.88067,0,0,1-4.81523,2.89089c-6.01878,0-6.89274-6.98344-6.89274-10.2929,0-4.306,1.05037-10.62558,7.34642-10.62558,4.12284,0,5.44568,2.58833,6.19691,5.50951l-2.19678.842c-.5714-2.01693-1.23195-4.30269-4.064-4.30269-3.55144,0-4.69424,3.57829-4.69424,8.36512,0,3.16145.50927,8.45909,4.69424,8.45909,4.18669,0,4.09771-4.9968,4.064-6.29105h-4.09255v-2.01676Z" transform="translate(-1.60447 -1.6339)"/>
    <path class="92df5cdb-c37b-4a02-a5d3-a1b3695a943a" d="M286.93182,91.86945l4.39684,9.23908,4.33625-9.23908H297.892l-5.53808,11.5887v8.48766h-2.437v-8.48766l-5.56837-11.5887Z" transform="translate(-1.60447 -1.6339)"/>
  </g>
  <g id="8e88ece4-55b7-4e47-b541-ac6492f787d6" data-name="shield">
    <path class="92df5cdb-c37b-4a02-a5d3-a1b3695a943a" d="M42.78434,79.90762A26.76729,26.76729,0,0,1,33.426,81.738c-17.51075,0-31.15424-13.0585-31.78777-31.75834L1.60447,2.2189h63.658l.05886,37.314C62.45073,29.025,55.09743,20.654,42.66661,20.654c-16.48792,0-24.05377,14.73328-24.05377,29.62558,0,14.89558,7.56585,29.63144,24.05377,29.63144C42.70877,79.91106,42.74648,79.90762,42.78434,79.90762Zm-.11773-56.94424c-13.22233,0-14.17858,17.92-14.17858,27.31624,0,9.39863.95624,27.32364,14.17858,27.32364,13.2208,0,14.17875-17.925,14.17875-27.32364C56.84535,40.88341,55.8874,22.96338,42.66661,22.96338Z" transform="translate(-1.60447 -1.6339)"/>
  </g>
</svg>
