<svg id="Layer_1" data-name="Layer 1" xmlns="http://www.w3.org/2000/svg" xmlns:xlink="http://www.w3.org/1999/xlink" width="32" height="48" viewBox="0 0 32 48"><defs><style>.cls-1{fill:#0077ca;}.cls-2{fill:url(#linear-gradient);}</style><linearGradient id="linear-gradient" x1="16" y1="-15.38" x2="16" y2="27.77" gradientUnits="userSpaceOnUse"><stop offset="0" stop-color="#003c71" stop-opacity="0"/><stop offset="1" stop-color="#003c71"/></linearGradient></defs><title>Untitled-1</title><path class="cls-1" d="M5.08,4.5A14.87,14.87,0,0,1,16,0,14.87,14.87,0,0,1,26.92,4.5a14.87,14.87,0,0,1,4.5,10.92q0,5.36-3.86,13.49a92.22,92.22,0,0,1-7.71,13.6L16,48q-1.71-2.36-4.28-6.05A104.34,104.34,0,0,1,4.86,29.51Q0.58,20.78.58,15.42A14.87,14.87,0,0,1,5.08,4.5Z"/><path class="cls-2" d="M24.43,6.82A11.5,11.5,0,0,0,16,3.32a11.49,11.49,0,0,0-8.43,3.5,11.49,11.49,0,0,0-3.5,8.43,11.43,11.43,0,0,0,2.81,7.62,40,40,0,0,1,5.62-2,0.74,0.74,0,0,0,.19-0.62,3.49,3.49,0,0,0-.25-1.5,9.16,9.16,0,0,1-.56-1.94A5.56,5.56,0,0,1,11,14.75,3.46,3.46,0,0,1,11.06,13V12.88a5.71,5.71,0,0,0-.19-2.37,4,4,0,0,1,.94-3.25A4.75,4.75,0,0,1,15.44,5.5h1.12a4.5,4.5,0,0,1,3.62,1.75,4,4,0,0,1,.94,3.25,5.71,5.71,0,0,0-.19,2.37A0.18,0.18,0,0,1,21,13a4,4,0,0,1,0,1.75,4.44,4.44,0,0,1-.87,2,8.1,8.1,0,0,1-.56,2,3.85,3.85,0,0,0-.37,1.44,1,1,0,0,0,.12.69q3.12,0.94,5.81,2a11.43,11.43,0,0,0,2.81-7.62A11.5,11.5,0,0,0,24.43,6.82Z"/></svg>