<svg id="Layer_1" data-name="Layer 1" xmlns="http://www.w3.org/2000/svg" width="32" height="42.73" viewBox="0 0 32 42.73"><defs><style>.cls-1{fill:#fff;fill-rule:evenodd;}.cls-2{fill:#0077ca;}</style></defs><title>marker_books</title><path class="cls-1" d="M16,0A16.13,16.13,0,0,1,31.74,13.11a17.7,17.7,0,0,1-.93,9.24,46.57,46.57,0,0,1-6.17,11.36,77,77,0,0,1-6.35,7.82,3,3,0,0,1-2.37,1.2,3,3,0,0,1-2.26-1.24C12.1,39.63,10.49,37.81,9,35.9A54.72,54.72,0,0,1,2.63,25.82,27.12,27.12,0,0,1,.31,19.09,15.56,15.56,0,0,1,3.4,6.21a15.63,15.63,0,0,1,10.14-6C14.36,0.1,15.2.07,16,0Z"/><path class="cls-2" d="M27.17,23.42a0.75,0.75,0,0,1-.07.59,0.76,0.76,0,0,1-.47.37l-4,1.08-0.2,0A0.72,0.72,0,0,1,22,25.34a0.8,0.8,0,0,1-.27-0.42L18.92,14.82v9.9a0.8,0.8,0,0,1-.78.78H14l-0.25,0a0.8,0.8,0,0,1-.25,0H10.57a0.64,0.64,0,0,1-.29-0.07,0.64,0.64,0,0,1-.29.07H5.82a0.71,0.71,0,0,1-.54-0.24,0.77,0.77,0,0,1-.22-0.55V10.4a0.77,0.77,0,0,1,.22-0.55,0.71,0.71,0,0,1,.54-0.24h4V7.4A0.77,0.77,0,0,1,10,6.85a0.72,0.72,0,0,1,.54-0.24h2.91a0.8,0.8,0,0,1,.78.78V9.62h3.88a0.74,0.74,0,0,1,.69.43l3.63-1a0.67,0.67,0,0,1,.2,0,0.76,0.76,0,0,1,.46.16,0.73,0.73,0,0,1,.28.4ZM6.08,10.67v2.8H9.71v-2.8H6.08Zm0,10.85H9.71v-7.8H6.08v7.8Zm3.63,2.94v-2.6H6.08v2.6H9.71ZM10.83,7.67v2.8h2.38V7.67H10.83Zm0,13h2.38V12.6H10.83v8.07Zm0,3.79h2.38V21.72H10.83v2.73Zm3.43-13.78v2.8h3.61v-2.8H14.26Zm0,10h3.61V15.6H14.26v5.06Zm3.61,3.79V21.72H14.26v2.73h3.61ZM19,11.1l0.74,2.71,3.52-1-0.74-2.71ZM23.54,14L20,15l1.77,6.57,3.5-.94Zm2.56,9.44L25.38,20.8l-3.5,1,0.72,2.62Z"/></svg>