<svg id="Layer_1" data-name="Layer 1" xmlns="http://www.w3.org/2000/svg" width="32" height="42.73" viewBox="0 0 32 42.73"><defs><style>.cls-1{fill:#fff;fill-rule:evenodd;}.cls-2{fill:#0077ca;}</style></defs><title>marker_home</title><path class="cls-1" d="M16,0A16.13,16.13,0,0,1,31.74,13.11a17.7,17.7,0,0,1-.93,9.24,46.57,46.57,0,0,1-6.17,11.36,77,77,0,0,1-6.35,7.82,3,3,0,0,1-2.37,1.2,3,3,0,0,1-2.26-1.24C12.1,39.63,10.49,37.81,9,35.9A54.72,54.72,0,0,1,2.63,25.82,27.12,27.12,0,0,1,.31,19.09,15.56,15.56,0,0,1,3.4,6.21a15.63,15.63,0,0,1,10.14-6C14.36,0.1,15.2.07,16,0Z"/><path class="cls-2" d="M27.23,16.54a1.32,1.32,0,0,1-2.24.94l-8.6-8.6-0.46-.49L7,17.33a1.24,1.24,0,0,1-.91.37A1.3,1.3,0,0,1,4.77,16.4a1.24,1.24,0,0,1,.37-0.91L15,5.61a1.28,1.28,0,0,1,.94-0.39,1.2,1.2,0,0,1,.91.39l10,10A1.28,1.28,0,0,1,27.23,16.54ZM15.88,9.71l7.93,7.86V26.4a1.09,1.09,0,0,1-.31.79,1,1,0,0,1-.77.32h-4.3V19.41H13.8v8.09H9.25a1.27,1.27,0,0,1-.84-0.32A1,1,0,0,1,8,26.4l0-8.83Z"/></svg>