<svg id="Layer_1" data-name="Layer 1" xmlns="http://www.w3.org/2000/svg" width="32" height="42.73" viewBox="0 0 32 42.73"><defs><style>.cls-1{fill:#fff;fill-rule:evenodd;}.cls-2{fill:#0077ca;}</style></defs><title>Untitled-1</title><path class="cls-1" d="M16,0A16.13,16.13,0,0,1,31.74,13.11a17.7,17.7,0,0,1-.93,9.24,46.57,46.57,0,0,1-6.17,11.36,77,77,0,0,1-6.35,7.82,3,3,0,0,1-2.37,1.2,3,3,0,0,1-2.26-1.24C12.1,39.63,10.49,37.81,9,35.9A54.72,54.72,0,0,1,2.63,25.82,27.12,27.12,0,0,1,.31,19.09,15.56,15.56,0,0,1,3.4,6.21a15.63,15.63,0,0,1,10.14-6C14.36,0.1,15.2.07,16,0Z"/><path class="cls-2" d="M26.14,15.14a5.79,5.79,0,0,1,0,1.66A5.91,5.91,0,0,1,25.79,18a3.9,3.9,0,0,1-.43.71,1.36,1.36,0,0,1-.21.26A16.46,16.46,0,0,1,24.89,21a11.39,11.39,0,0,1-.4,1.45,7.27,7.27,0,0,1-.35.85L24,23.6H20.88V21.9a20.31,20.31,0,0,1-5.71.14l-1,1.56h-3V21.33a12.57,12.57,0,0,1-3.9-1.41,12.17,12.17,0,0,1-3.21-2.6V15.21H5.78a5.34,5.34,0,0,1,1.19-2A5.12,5.12,0,0,1,8.89,12a2,2,0,0,0-.07-1.1A2.1,2.1,0,0,0,8.18,10a2.54,2.54,0,0,1,1.23.12,3.52,3.52,0,0,1,.92.5,4.14,4.14,0,0,1,.59.57l0.21,0.26a5.75,5.75,0,0,1,3.22-1.59,16.89,16.89,0,0,1,4-.26,13.44,13.44,0,0,1,3,.43,9.47,9.47,0,0,1,3.53,2.2,0.73,0.73,0,0,0,.49-0.38,0.47,0.47,0,0,0-.11-0.43,2.21,2.21,0,0,0-.33-0.31l-0.19-.12a1.81,1.81,0,0,1,1.18.38,0.73,0.73,0,0,1,.14.69,2.61,2.61,0,0,1-.33.66L25.51,13A7.92,7.92,0,0,1,26.14,15.14ZM9.77,15.4a0.89,0.89,0,0,0,.9-0.9,0.91,0.91,0,0,0-.26-0.65,0.89,0.89,0,0,0-1.28,0,0.91,0.91,0,0,0-.26.65A0.89,0.89,0,0,0,9.77,15.4Zm10.52-3.6a0.34,0.34,0,0,0,.13-0.08,0.34,0.34,0,0,0,.08-0.13,0.32,0.32,0,0,0,0-.24,0.39,0.39,0,0,0-.19-0.17H15.74a0.31,0.31,0,0,0-.18.46,0.34,0.34,0,0,0,.18.15h4.55Z"/></svg>