<svg id="Layer_1" data-name="Layer 1" xmlns="http://www.w3.org/2000/svg" xmlns:xlink="http://www.w3.org/1999/xlink" width="32" height="48" viewBox="0 0 32 48"><defs><style>.cls-1{fill:url(#linear-gradient);}.cls-2{fill:#fff;}</style><linearGradient id="linear-gradient" x1="16" x2="16" y2="48" gradientUnits="userSpaceOnUse"><stop offset="0" stop-color="#003c71" stop-opacity="0"/><stop offset="1" stop-color="#003c71"/></linearGradient></defs><title>marker</title><path class="cls-1" d="M5.07,4.5A14.88,14.88,0,0,1,16,0,14.88,14.88,0,0,1,26.93,4.5a14.88,14.88,0,0,1,4.5,10.93q0,5.36-3.86,13.5a92.23,92.23,0,0,1-7.71,13.61L16,48q-1.72-2.36-4.29-6.05A104.33,104.33,0,0,1,4.86,29.52Q0.57,20.79.57,15.43A14.88,14.88,0,0,1,5.07,4.5ZM12.41,19A4.87,4.87,0,0,0,16,20.46a4.94,4.94,0,0,0,5-5,4.94,4.94,0,0,0-5-5,4.94,4.94,0,0,0-5,5A4.87,4.87,0,0,0,12.41,19Z"/><path class="cls-2" d="M5.07,4.5A14.88,14.88,0,0,1,16,0,14.88,14.88,0,0,1,26.93,4.5a14.88,14.88,0,0,1,4.5,10.93q0,5.36-3.86,13.5a92.23,92.23,0,0,1-7.71,13.61L16,48q-1.72-2.36-4.29-6.05A104.33,104.33,0,0,1,4.86,29.52Q0.57,20.79.57,15.43A14.88,14.88,0,0,1,5.07,4.5ZM25.75,5.68a13.26,13.26,0,0,0-9.75-4,13.25,13.25,0,0,0-9.75,4,13.25,13.25,0,0,0-4,9.75q0,7.07,7.5,19.93A109.53,109.53,0,0,0,16,45.11a109.92,109.92,0,0,0,6.21-9.75q7.5-12.86,7.5-19.93A13.26,13.26,0,0,0,25.75,5.68ZM11.18,10.61a6.73,6.73,0,0,1,9.64,0,6.73,6.73,0,0,1,0,9.64,6.73,6.73,0,0,1-9.64,0A6.73,6.73,0,0,1,11.18,10.61ZM12.41,19A4.87,4.87,0,0,0,16,20.46a4.94,4.94,0,0,0,5-5,4.94,4.94,0,0,0-5-5,4.94,4.94,0,0,0-5,5A4.87,4.87,0,0,0,12.41,19Z"/></svg>