<svg id="Layer_1" data-name="Layer 1" xmlns="http://www.w3.org/2000/svg" xmlns:xlink="http://www.w3.org/1999/xlink" width="32" height="42.73" viewBox="0 0 32 42.73"><defs><style>.cls-1{fill:#0077ca;}.cls-1,.cls-2{fill-rule:evenodd;}.cls-2{fill:url(#linear-gradient);}</style><linearGradient id="linear-gradient" x1="16" x2="16" y2="42.73" gradientUnits="userSpaceOnUse"><stop offset="0" stop-color="#003c71" stop-opacity="0"/><stop offset="1" stop-color="#003c71"/></linearGradient></defs><title>marker_alt</title><path class="cls-1" d="M16,0A16.13,16.13,0,0,1,31.74,13.11a17.7,17.7,0,0,1-.93,9.24,46.57,46.57,0,0,1-6.17,11.36,77,77,0,0,1-6.35,7.82,3,3,0,0,1-2.37,1.2,3,3,0,0,1-2.26-1.24C12.1,39.63,10.49,37.81,9,35.9A54.72,54.72,0,0,1,2.63,25.82,27.12,27.12,0,0,1,.31,19.09,15.56,15.56,0,0,1,3.4,6.21a15.63,15.63,0,0,1,10.14-6C14.36,0.1,15.2.07,16,0Zm8.55,16.07A8.58,8.58,0,1,0,16,24.63,8.59,8.59,0,0,0,24.58,16.07Z"/><path class="cls-2" d="M16,0A16.13,16.13,0,0,1,31.74,13.11a17.7,17.7,0,0,1-.93,9.24,46.57,46.57,0,0,1-6.17,11.36,77,77,0,0,1-6.35,7.82,3,3,0,0,1-2.37,1.2,3,3,0,0,1-2.26-1.24C12.1,39.63,10.49,37.81,9,35.9A54.72,54.72,0,0,1,2.63,25.82,27.12,27.12,0,0,1,.31,19.09,15.56,15.56,0,0,1,3.4,6.21a15.63,15.63,0,0,1,10.14-6C14.36,0.1,15.2.07,16,0Zm8.55,16.07A8.58,8.58,0,1,0,16,24.63,8.59,8.59,0,0,0,24.58,16.07Z"/></svg>