<svg id="arrows" xmlns="http://www.w3.org/2000/svg" width="190.43" height="255.43" viewBox="0 0 190.43 255.43"><defs><style>.cls-1{fill:#fff;}.cls-2{fill:#0077ca;}</style></defs><title>marker_tour</title><path class="cls-1" d="M32.78,125.43Q33.35,94.65,51.31,70.7a95.27,95.27,0,0,1,45.9-33.64,78.49,78.49,0,0,1,21.1-4.56V0l43.33,38.2,14.82,13.11L151.38,73.55l-33.64,29.08,0.57-33.07a56.4,56.4,0,0,0-35.06,20,57.43,57.43,0,0,0-14,38.2A64,64,0,0,0,75,153.37q3.42,7.42,5.13,9.12l-26.8,25.09a2.84,2.84,0,0,0-.57-1.43,10,10,0,0,0-1.14-1.43q-18.81-26.22-18.81-57v-2.28ZM137.69,152.8v33.07a56.94,56.94,0,0,0,35.06-19.67q14-16.25,14-38.49,0-12-5.7-25.09-4.57-8.55-5.13-9.69l26.8-24.52a18.38,18.38,0,0,1,1.71,2.28,92.58,92.58,0,0,1,18.81,57V130a93,93,0,0,1-18,54.16,92.09,92.09,0,0,1-45.33,33.64q-13.12,4.57-22.24,5.13v32.5l-43.33-38.2L79.54,204.11l25.09-22.24Z" transform="translate(-32.78)"/><path class="cls-1" d="M128,92q30.69,0,62.5,36-7.53,7.53-9.63,9.49t-10.18,8.65q-8.1,6.7-13.11,9.21a107.72,107.72,0,0,1-13.25,5.3A50.57,50.57,0,0,1,128,163.43a63.89,63.89,0,0,1-18.42-2.51,55.37,55.37,0,0,1-16.74-8.65A162.84,162.84,0,0,1,79.73,141.8Q75,137.48,65.5,127.71q18.13-18.13,32.23-26.92A56.17,56.17,0,0,1,128,92Z" transform="translate(-32.78)"/><path class="cls-2" d="M110.28,145.57a24.6,24.6,0,0,0,35.44,0,25.26,25.26,0,0,0,0-35.71,24.6,24.6,0,0,0-35.44,0A25.26,25.26,0,0,0,110.28,145.57Z" transform="translate(-32.78)"/><path d="M128,118.79a8.6,8.6,0,0,0,8.93,8.93,9.68,9.68,0,0,0,5.58-2v2a14.49,14.49,0,0,1-4.19,10.46,14.48,14.48,0,0,1-20.65,0,15.17,15.17,0,0,1,0-20.93A13.8,13.8,0,0,1,128,112.93h2.23A9.24,9.24,0,0,0,128,118.79Z" transform="translate(-32.78)"/></svg>